<svg width="20" height="22" viewBox="0 0 20 22" fill="none" xmlns="http://www.w3.org/2000/svg">
<path d="M10 7.40553C10.9167 7.40553 11.6667 6.62191 11.6667 5.66415C11.6667 4.70639 10.9167 3.92277 10 3.92277C9.08334 3.92277 8.33334 4.70639 8.33334 5.66415C8.33334 6.62191 9.08334 7.40553 10 7.40553ZM10 9.1469C9.08334 9.1469 8.33334 9.93053 8.33334 10.8883C8.33334 11.846 9.08334 12.6297 10 12.6297C10.9167 12.6297 11.6667 11.846 11.6667 10.8883C11.6667 9.93053 10.9167 9.1469 10 9.1469ZM10 14.371C9.08334 14.371 8.33334 15.1547 8.33334 16.1124C8.33334 17.0702 9.08334 17.8538 10 17.8538C10.9167 17.8538 11.6667 17.0702 11.6667 16.1124C11.6667 15.1547 10.9167 14.371 10 14.371Z" fill="#58636D"/>
</svg>
